<svg version="1.1" id="Layer_1" xmlns="http://www.w3.org/2000/svg" xmlns:xlink="http://www.w3.org/1999/xlink" x="0px" y="0px"
	 width="100%" viewBox="0 0 848 200" enable-background="new 0 0 848 200" xml:space="preserve">
<path fill="#F3F5F1" opacity="1.000000" stroke="none" 
	d="
M610.000000,201.000000 
	C406.715027,201.000000 203.930023,201.000000 1.072521,201.000000 
	C1.072521,134.397644 1.072521,67.795174 1.072521,1.096357 
	C283.666656,1.096357 566.333313,1.096357 848.971313,1.096357 
	C848.971313,67.736694 848.971313,134.368362 848.971313,201.000000 
	C769.461731,201.000000 689.980896,201.000000 610.000000,201.000000 
M203.596771,148.955154 
	C211.332291,154.045807 219.974808,156.278534 229.091476,156.635071 
	C256.217529,157.695923 283.965240,137.579300 276.441315,102.312653 
	C260.045868,102.312653 243.633148,102.312653 227.051285,102.312653 
	C227.051285,107.969086 227.051285,113.346130 227.051285,119.225632 
	C236.760773,119.225632 246.134857,119.225632 255.627930,119.225632 
	C250.972153,136.890137 232.010925,138.945114 220.172974,133.389099 
	C207.615646,127.495445 202.391312,109.745911 208.757812,95.128647 
	C215.710327,79.165840 236.772003,75.754105 248.418472,88.675232 
	C249.156204,89.493706 250.195374,90.592575 251.112762,90.610374 
	C259.015717,90.763794 266.922882,90.698563 274.889954,90.698563 
	C273.265289,77.095825 258.846069,60.923016 234.402527,59.342079 
	C213.083923,57.963264 192.871246,69.771141 185.764801,89.399498 
	C177.601425,111.947174 184.577988,135.909637 203.596771,148.955154 
M452.607788,143.482422 
	C452.607788,122.410172 452.607788,101.337921 452.607788,80.291756 
	C444.412933,80.291756 436.987518,80.291756 429.083313,80.291756 
	C429.083313,83.450279 429.083313,86.336578 429.083313,89.714256 
	C411.671326,71.058693 386.891022,79.271332 379.134766,93.627243 
	C375.827850,99.747948 373.713562,106.861015 372.659180,113.767677 
	C371.146698,123.674980 373.324554,133.330048 378.753998,141.981232 
	C390.025482,159.941071 410.997803,161.948212 429.273926,146.236465 
	C429.273926,149.772903 429.273926,152.785339 429.273926,155.687531 
	C437.348206,155.687531 444.761169,155.687531 452.607391,155.687531 
	C452.607391,151.740494 452.607391,148.106552 452.607788,143.482422 
M601.108826,90.531021 
	C601.108826,112.275932 601.108826,134.020844 601.108826,155.688232 
	C609.293640,155.688232 616.709351,155.688232 624.551208,155.688232 
	C624.551208,153.412399 624.542847,151.437790 624.552612,149.463272 
	C624.613464,137.137512 624.418579,124.803040 624.831360,112.488976 
	C625.116577,103.979454 630.413757,99.062141 638.357544,98.846344 
	C646.889893,98.614563 652.189026,103.071060 653.236938,111.627342 
	C653.640137,114.919426 653.683533,118.268669 653.699158,121.592751 
	C653.752136,132.880127 653.719421,144.167892 653.719421,155.726685 
	C661.580872,155.726685 668.972717,155.726685 676.857361,155.726685 
	C676.857361,151.339920 676.912903,147.214279 676.847046,143.090591 
	C676.642456,130.274872 677.119812,117.394791 675.981018,104.660553 
	C674.442200,87.453613 660.510132,77.456192 643.324829,79.628197 
	C636.110718,80.539970 630.304749,83.857964 624.813538,89.213661 
	C624.595642,85.680214 624.426819,82.941856 624.265442,80.324280 
	C616.336121,80.324280 608.916077,80.324280 601.108948,80.324280 
	C601.108948,83.606667 601.108948,86.576073 601.108826,90.531021 
M325.443848,157.019913 
	C348.962494,156.375809 365.151306,140.025620 364.561279,117.512558 
	C363.955750,94.408989 348.137848,78.993431 325.033203,78.989975 
	C301.870422,78.986504 285.959442,94.588364 285.707764,117.551384 
	C285.451294,140.952896 300.716980,156.483566 325.443848,157.019913 
M531.988342,122.136078 
	C531.988342,108.208786 531.988342,94.281487 531.988342,80.351746 
	C523.915955,80.351746 516.520203,80.351746 509.038666,80.351746 
	C509.038666,97.008835 508.506104,113.338188 509.191345,129.616272 
	C509.851074,145.287888 521.377502,156.293213 536.483521,156.765961 
	C545.832947,157.058533 554.065552,154.028595 560.868469,146.140854 
	C561.048645,149.853165 561.188110,152.725250 561.333435,155.718842 
	C569.092834,155.718842 576.503296,155.718842 583.994995,155.718842 
	C583.994995,130.408142 583.994995,105.382591 583.994995,80.354050 
	C576.218689,80.354050 568.824341,80.354050 561.081177,80.354050 
	C561.081177,94.338577 561.174805,107.973373 561.049255,121.606148 
	C560.961121,131.175873 556.060730,136.733185 547.758240,137.141846 
	C538.328674,137.605988 533.439270,133.226044 531.988342,122.136078 
M775.603821,154.058136 
	C775.603821,148.271072 775.603821,142.484009 775.603821,136.066040 
	C772.051147,136.066040 769.101685,136.074203 766.152222,136.063980 
	C762.538940,136.051453 760.319824,134.131119 760.259644,130.639603 
	C760.082642,120.369888 760.196533,110.095169 760.196533,99.199707 
	C765.401428,99.199707 770.136047,99.199707 774.961548,99.199707 
	C774.961548,92.509460 774.961548,86.455650 774.961548,79.869408 
	C769.902527,79.869408 765.158203,79.869408 760.052979,79.869408 
	C760.052979,73.564308 760.052979,67.785568 760.052979,61.720097 
	C752.247070,61.720097 744.833435,61.720097 736.856689,61.720097 
	C736.856689,67.861092 736.856689,73.762421 736.856689,80.151802 
	C733.552185,80.151802 730.807007,80.151802 728.076782,80.151802 
	C728.076782,86.732849 728.076782,92.802711 728.076782,99.067558 
	C731.170776,99.215317 733.914856,99.346359 736.964600,99.492004 
	C736.964600,110.170547 736.798401,120.322929 736.999817,130.468018 
	C737.396423,150.447113 756.297424,162.413589 775.603821,154.058136 
M141.751526,110.500015 
	C141.749222,94.677628 141.867599,78.853905 141.693344,63.033409 
	C141.607101,55.204762 136.040405,49.822941 128.867447,50.006504 
	C121.969269,50.183044 117.039215,55.659077 117.008148,63.351532 
	C116.958366,75.676140 116.993942,88.001099 116.994026,100.325905 
	C116.994156,118.480019 116.922310,136.634537 117.023735,154.788086 
	C117.080208,164.895584 126.290863,170.787048 134.962494,166.414551 
	C140.284607,163.730988 141.718521,158.915771 141.736008,153.470963 
	C141.780930,139.480774 141.751038,125.490356 141.751526,110.500015 
M492.550995,64.588371 
	C492.550995,61.521587 492.550995,58.454803 492.550995,55.553932 
	C484.180084,55.553932 476.775360,55.553932 469.459106,55.553932 
	C469.459106,89.207619 469.459106,122.448921 469.459106,155.726120 
	C477.233246,155.726120 484.653931,155.726120 492.550446,155.726120 
	C492.550446,125.489754 492.550446,95.528519 492.550995,64.588371 
M75.999969,125.499092 
	C76.007423,130.830872 75.809074,136.172806 76.071732,141.491974 
	C76.443253,149.015549 81.619789,153.314667 89.461357,152.997513 
	C95.943275,152.735352 99.990540,148.175797 99.995064,141.046768 
	C100.008720,119.552711 99.935463,98.058289 100.051666,76.564857 
	C100.076271,72.013634 98.070595,68.912003 94.415642,66.734825 
	C86.189156,61.834461 76.156479,67.630211 76.048630,77.512909 
	C75.877731,93.173393 76.001114,108.837090 75.999969,125.499092 
M716.133789,122.500008 
	C716.133789,108.442848 716.133789,94.385681 716.133789,80.332916 
	C708.052002,80.332916 700.666992,80.332916 693.304688,80.332916 
	C693.304688,105.669815 693.304688,130.676971 693.304688,155.672791 
	C701.029785,155.672791 708.420227,155.672791 716.133850,155.672791 
	C716.133850,144.733490 716.133850,134.116745 716.133789,122.500008 
M54.331707,134.914261 
	C55.798786,131.847443 58.392849,128.830521 58.531246,125.704872 
	C59.038849,114.240913 58.960022,102.734535 58.646637,91.256554 
	C58.443703,83.823967 52.579308,78.694847 45.599525,79.008354 
	C38.946373,79.307198 34.054058,84.754593 34.010696,92.111000 
	C33.947899,102.764885 34.571842,113.459961 33.827999,124.062050 
	C33.111103,134.279999 44.862698,142.374893 54.331707,134.914261 
M717.950134,62.840683 
	C718.000000,61.024895 718.279724,59.180588 718.058594,57.398430 
	C717.250793,50.887386 711.043213,46.560413 703.386353,47.013763 
	C696.213989,47.438423 691.013611,52.545788 690.895264,59.281418 
	C690.779419,65.876488 695.594788,71.190712 702.387207,71.963905 
	C709.575256,72.782135 714.258240,70.239342 717.950134,62.840683 
z"/>
<path fill="#526976" opacity="1.000000" stroke="none" 
	d="
M203.292999,148.757721 
	C184.577988,135.909637 177.601425,111.947174 185.764801,89.399498 
	C192.871246,69.771141 213.083923,57.963264 234.402527,59.342079 
	C258.846069,60.923016 273.265289,77.095825 274.889954,90.698563 
	C266.922882,90.698563 259.015717,90.763794 251.112762,90.610374 
	C250.195374,90.592575 249.156204,89.493706 248.418472,88.675232 
	C236.772003,75.754105 215.710327,79.165840 208.757812,95.128647 
	C202.391312,109.745911 207.615646,127.495445 220.172974,133.389099 
	C232.010925,138.945114 250.972153,136.890137 255.627930,119.225632 
	C246.134857,119.225632 236.760773,119.225632 227.051285,119.225632 
	C227.051285,113.346130 227.051285,107.969086 227.051285,102.312653 
	C243.633148,102.312653 260.045868,102.312653 276.441315,102.312653 
	C283.965240,137.579300 256.217529,157.695923 229.091476,156.635071 
	C219.974808,156.278534 211.332291,154.045807 203.292999,148.757721 
z"/>
<path fill="#536977" opacity="1.000000" stroke="none" 
	d="
M452.607605,143.977509 
	C452.607391,148.106552 452.607391,151.740494 452.607391,155.687531 
	C444.761169,155.687531 437.348206,155.687531 429.273926,155.687531 
	C429.273926,152.785339 429.273926,149.772903 429.273926,146.236465 
	C410.997803,161.948212 390.025482,159.941071 378.753998,141.981232 
	C373.324554,133.330048 371.146698,123.674980 372.659180,113.767677 
	C373.713562,106.861015 375.827850,99.747948 379.134766,93.627243 
	C386.891022,79.271332 411.671326,71.058693 429.083313,89.714256 
	C429.083313,86.336578 429.083313,83.450279 429.083313,80.291756 
	C436.987518,80.291756 444.412933,80.291756 452.607788,80.291756 
	C452.607788,101.337921 452.607788,122.410172 452.607605,143.977509 
M397.899994,108.707268 
	C397.391541,110.286400 396.734314,111.834633 396.398956,113.449699 
	C394.320374,123.460007 399.266052,133.342163 407.591156,135.954758 
	C415.713715,138.503784 424.062775,134.726151 427.467773,126.961372 
	C431.730682,117.240059 428.349945,105.412971 420.063446,101.058411 
	C412.301788,96.979637 403.795471,99.672905 397.899994,108.707268 
z"/>
<path fill="#526976" opacity="1.000000" stroke="none" 
	d="
M601.108887,90.038254 
	C601.108948,86.576073 601.108948,83.606667 601.108948,80.324280 
	C608.916077,80.324280 616.336121,80.324280 624.265442,80.324280 
	C624.426819,82.941856 624.595642,85.680214 624.813538,89.213661 
	C630.304749,83.857964 636.110718,80.539970 643.324829,79.628197 
	C660.510132,77.456192 674.442200,87.453613 675.981018,104.660553 
	C677.119812,117.394791 676.642456,130.274872 676.847046,143.090591 
	C676.912903,147.214279 676.857361,151.339920 676.857361,155.726685 
	C668.972717,155.726685 661.580872,155.726685 653.719421,155.726685 
	C653.719421,144.167892 653.752136,132.880127 653.699158,121.592751 
	C653.683533,118.268669 653.640137,114.919426 653.236938,111.627342 
	C652.189026,103.071060 646.889893,98.614563 638.357544,98.846344 
	C630.413757,99.062141 625.116577,103.979454 624.831360,112.488976 
	C624.418579,124.803040 624.613464,137.137512 624.552612,149.463272 
	C624.542847,151.437790 624.551208,153.412399 624.551208,155.688232 
	C616.709351,155.688232 609.293640,155.688232 601.108826,155.688232 
	C601.108826,134.020844 601.108826,112.275932 601.108887,90.038254 
z"/>
<path fill="#516876" opacity="1.000000" stroke="none" 
	d="
M324.975647,157.022247 
	C300.716980,156.483566 285.451294,140.952896 285.707764,117.551384 
	C285.959442,94.588364 301.870422,78.986504 325.033203,78.989975 
	C348.137848,78.993431 363.955750,94.408989 364.561279,117.512558 
	C365.151306,140.025620 348.962494,156.375809 324.975647,157.022247 
M309.849701,112.528091 
	C309.950226,116.799644 309.408875,121.210693 310.299896,125.310448 
	C311.677277,131.648087 315.997742,135.803177 322.600586,136.749954 
	C328.893707,137.652313 334.087280,135.285995 337.620453,129.999146 
	C341.020538,124.911469 341.504791,119.148476 340.413025,113.255508 
	C338.815216,104.631355 333.207947,99.348297 325.545654,99.081589 
	C317.963135,98.817657 312.450226,103.288773 309.849701,112.528091 
z"/>
<path fill="#516876" opacity="1.000000" stroke="none" 
	d="
M532.003052,122.588776 
	C533.439270,133.226044 538.328674,137.605988 547.758240,137.141846 
	C556.060730,136.733185 560.961121,131.175873 561.049255,121.606148 
	C561.174805,107.973373 561.081177,94.338577 561.081177,80.354050 
	C568.824341,80.354050 576.218689,80.354050 583.994995,80.354050 
	C583.994995,105.382591 583.994995,130.408142 583.994995,155.718842 
	C576.503296,155.718842 569.092834,155.718842 561.333435,155.718842 
	C561.188110,152.725250 561.048645,149.853165 560.868469,146.140854 
	C554.065552,154.028595 545.832947,157.058533 536.483521,156.765961 
	C521.377502,156.293213 509.851074,145.287888 509.191345,129.616272 
	C508.506104,113.338188 509.038666,97.008835 509.038666,80.351746 
	C516.520203,80.351746 523.915955,80.351746 531.988342,80.351746 
	C531.988342,94.281487 531.988342,108.208786 532.003052,122.588776 
z"/>
<path fill="#516876" opacity="1.000000" stroke="none" 
	d="
M775.538086,154.509735 
	C756.297424,162.413589 737.396423,150.447113 736.999817,130.468018 
	C736.798401,120.322929 736.964600,110.170547 736.964600,99.492004 
	C733.914856,99.346359 731.170776,99.215317 728.076782,99.067558 
	C728.076782,92.802711 728.076782,86.732849 728.076782,80.151802 
	C730.807007,80.151802 733.552185,80.151802 736.856689,80.151802 
	C736.856689,73.762421 736.856689,67.861092 736.856689,61.720097 
	C744.833435,61.720097 752.247070,61.720097 760.052979,61.720097 
	C760.052979,67.785568 760.052979,73.564308 760.052979,79.869408 
	C765.158203,79.869408 769.902527,79.869408 774.961548,79.869408 
	C774.961548,86.455650 774.961548,92.509460 774.961548,99.199707 
	C770.136047,99.199707 765.401428,99.199707 760.196533,99.199707 
	C760.196533,110.095169 760.082642,120.369888 760.259644,130.639603 
	C760.319824,134.131119 762.538940,136.051453 766.152222,136.063980 
	C769.101685,136.074203 772.051147,136.066040 775.603821,136.066040 
	C775.603821,142.484009 775.603821,148.271072 775.538086,154.509735 
z"/>
<path fill="#8D988B" opacity="1.000000" stroke="none" 
	d="
M141.751282,111.000023 
	C141.751038,125.490356 141.780930,139.480774 141.736008,153.470963 
	C141.718521,158.915771 140.284607,163.730988 134.962494,166.414551 
	C126.290863,170.787048 117.080208,164.895584 117.023735,154.788086 
	C116.922310,136.634537 116.994156,118.480019 116.994026,100.325905 
	C116.993942,88.001099 116.958366,75.676140 117.008148,63.351532 
	C117.039215,55.659077 121.969269,50.183044 128.867447,50.006504 
	C136.040405,49.822941 141.607101,55.204762 141.693344,63.033409 
	C141.867599,78.853905 141.749222,94.677628 141.751282,111.000023 
z"/>
<path fill="#526976" opacity="1.000000" stroke="none" 
	d="
M492.550720,65.077835 
	C492.550446,95.528519 492.550446,125.489754 492.550446,155.726120 
	C484.653931,155.726120 477.233246,155.726120 469.459106,155.726120 
	C469.459106,122.448921 469.459106,89.207619 469.459106,55.553932 
	C476.775360,55.553932 484.180084,55.553932 492.550995,55.553932 
	C492.550995,58.454803 492.550995,61.521587 492.550720,65.077835 
z"/>
<path fill="#8B9689" opacity="1.000000" stroke="none" 
	d="
M75.999969,124.999260 
	C76.001114,108.837090 75.877731,93.173393 76.048630,77.512909 
	C76.156479,67.630211 86.189156,61.834461 94.415642,66.734825 
	C98.070595,68.912003 100.076271,72.013634 100.051666,76.564857 
	C99.935463,98.058289 100.008720,119.552711 99.995064,141.046768 
	C99.990540,148.175797 95.943275,152.735352 89.461357,152.997513 
	C81.619789,153.314667 76.443253,149.015549 76.071732,141.491974 
	C75.809074,136.172806 76.007423,130.830872 75.999969,124.999260 
z"/>
<path fill="#506775" opacity="1.000000" stroke="none" 
	d="
M716.133789,123.000015 
	C716.133850,134.116745 716.133850,144.733490 716.133850,155.672791 
	C708.420227,155.672791 701.029785,155.672791 693.304688,155.672791 
	C693.304688,130.676971 693.304688,105.669815 693.304688,80.332916 
	C700.666992,80.332916 708.052002,80.332916 716.133789,80.332916 
	C716.133789,94.385681 716.133789,108.442848 716.133789,123.000015 
z"/>
<path fill="#8D988B" opacity="1.000000" stroke="none" 
	d="
M54.041595,135.157410 
	C44.862698,142.374893 33.111103,134.279999 33.827999,124.062050 
	C34.571842,113.459961 33.947899,102.764885 34.010696,92.111000 
	C34.054058,84.754593 38.946373,79.307198 45.599525,79.008354 
	C52.579308,78.694847 58.443703,83.823967 58.646637,91.256554 
	C58.960022,102.734535 59.038849,114.240913 58.531246,125.704872 
	C58.392849,128.830521 55.798786,131.847443 54.041595,135.157410 
z"/>
<path fill="#526977" opacity="1.000000" stroke="none" 
	d="
M717.842651,63.235451 
	C714.258240,70.239342 709.575256,72.782135 702.387207,71.963905 
	C695.594788,71.190712 690.779419,65.876488 690.895264,59.281418 
	C691.013611,52.545788 696.213989,47.438423 703.386353,47.013763 
	C711.043213,46.560413 717.250793,50.887386 718.058594,57.398430 
	C718.279724,59.180588 718.000000,61.024895 717.842651,63.235451 
z"/>
<path fill="#F1F3EF" opacity="1.000000" stroke="none" 
	d="
M398.037903,108.347862 
	C403.795471,99.672905 412.301788,96.979637 420.063446,101.058411 
	C428.349945,105.412971 431.730682,117.240059 427.467773,126.961372 
	C424.062775,134.726151 415.713715,138.503784 407.591156,135.954758 
	C399.266052,133.342163 394.320374,123.460007 396.398956,113.449699 
	C396.734314,111.834633 397.391541,110.286400 398.037903,108.347862 
z"/>
<path fill="#F0F2EF" opacity="1.000000" stroke="none" 
	d="
M309.910339,112.120605 
	C312.450226,103.288773 317.963135,98.817657 325.545654,99.081589 
	C333.207947,99.348297 338.815216,104.631355 340.413025,113.255508 
	C341.504791,119.148476 341.020538,124.911469 337.620453,129.999146 
	C334.087280,135.285995 328.893707,137.652313 322.600586,136.749954 
	C315.997742,135.803177 311.677277,131.648087 310.299896,125.310448 
	C309.408875,121.210693 309.950226,116.799644 309.910339,112.120605 
z"/>
</svg>