<?xml version="1.0" encoding="UTF-8"?>
<svg xmlns="http://www.w3.org/2000/svg" xmlns:xlink="http://www.w3.org/1999/xlink" width="150px" height="36px" viewBox="0 0 152 36" version="1.1">
<g id="surface1">
<path style=" stroke:none;fill-rule:nonzero;fill:rgb(95.294118%,96.078431%,94.509804%);fill-opacity:1;" d="M 109.339844 36.179688 C 72.902344 36.179688 36.554688 36.179688 0.191406 36.179688 C 0.191406 24.191406 0.191406 12.203125 0.191406 0.199219 C 50.847656 0.199219 101.511719 0.199219 152.175781 0.199219 C 152.175781 12.191406 152.175781 24.1875 152.175781 36.179688 C 137.921875 36.179688 123.675781 36.179688 109.339844 36.179688 M 36.492188 26.8125 C 37.878906 27.726562 39.429688 28.128906 41.0625 28.195312 C 45.925781 28.386719 50.898438 24.765625 49.550781 18.417969 C 46.613281 18.417969 43.671875 18.417969 40.699219 18.417969 C 40.699219 19.433594 40.699219 20.402344 40.699219 21.460938 C 42.4375 21.460938 44.117188 21.460938 45.820312 21.460938 C 44.984375 24.640625 41.585938 25.011719 39.464844 24.011719 C 37.214844 22.949219 36.277344 19.753906 37.417969 17.125 C 38.664062 14.25 42.441406 13.636719 44.527344 15.960938 C 44.660156 16.109375 44.847656 16.308594 45.011719 16.308594 C 46.425781 16.335938 47.84375 16.324219 49.273438 16.324219 C 48.980469 13.878906 46.398438 10.964844 42.015625 10.679688 C 38.195312 10.433594 34.570312 12.558594 33.296875 16.09375 C 31.835938 20.152344 33.085938 24.464844 36.492188 26.8125 M 81.128906 25.828125 C 81.128906 22.035156 81.128906 18.242188 81.128906 14.453125 C 79.660156 14.453125 78.328125 14.453125 76.910156 14.453125 C 76.910156 15.019531 76.910156 15.539062 76.910156 16.148438 C 73.789062 12.789062 69.347656 14.269531 67.957031 16.851562 C 67.367188 17.953125 66.988281 19.234375 66.796875 20.476562 C 66.527344 22.261719 66.917969 24 67.890625 25.554688 C 69.910156 28.789062 73.667969 29.152344 76.945312 26.324219 C 76.945312 26.960938 76.945312 27.5 76.945312 28.023438 C 78.394531 28.023438 79.722656 28.023438 81.128906 28.023438 C 81.128906 27.3125 81.128906 26.660156 81.128906 25.828125 M 107.746094 16.296875 C 107.746094 20.210938 107.746094 24.125 107.746094 28.023438 C 109.214844 28.023438 110.542969 28.023438 111.949219 28.023438 C 111.949219 27.613281 111.945312 27.257812 111.949219 26.902344 C 111.960938 24.683594 111.925781 22.464844 112 20.246094 C 112.050781 18.714844 113 17.832031 114.421875 17.792969 C 115.953125 17.75 116.902344 18.554688 117.089844 20.09375 C 117.160156 20.683594 117.167969 21.289062 117.171875 21.886719 C 117.183594 23.917969 117.175781 25.949219 117.175781 28.03125 C 118.585938 28.03125 119.910156 28.03125 121.324219 28.03125 C 121.324219 27.242188 121.332031 26.5 121.320312 25.757812 C 121.285156 23.449219 121.371094 21.132812 121.167969 18.839844 C 120.890625 15.742188 118.394531 13.941406 115.3125 14.332031 C 114.019531 14.496094 112.980469 15.09375 111.996094 16.058594 C 111.957031 15.421875 111.925781 14.929688 111.898438 14.457031 C 110.476562 14.457031 109.144531 14.457031 107.746094 14.457031 C 107.746094 15.050781 107.746094 15.582031 107.746094 16.296875 M 58.335938 28.261719 C 62.550781 28.148438 65.453125 25.203125 65.347656 21.152344 C 65.238281 16.992188 62.402344 14.21875 58.261719 14.21875 C 54.109375 14.21875 51.257812 17.027344 51.210938 21.160156 C 51.164062 25.371094 53.902344 28.167969 58.335938 28.261719 M 95.355469 21.984375 C 95.355469 19.476562 95.355469 16.96875 95.355469 14.464844 C 93.910156 14.464844 92.582031 14.464844 91.242188 14.464844 C 91.242188 17.460938 91.148438 20.402344 91.269531 23.332031 C 91.386719 26.152344 93.453125 28.132812 96.164062 28.21875 C 97.839844 28.269531 99.3125 27.726562 100.53125 26.304688 C 100.566406 26.972656 100.589844 27.492188 100.617188 28.03125 C 102.007812 28.03125 103.335938 28.03125 104.679688 28.03125 C 104.679688 23.472656 104.679688 18.96875 104.679688 14.464844 C 103.285156 14.464844 101.960938 14.464844 100.570312 14.464844 C 100.570312 16.980469 100.589844 19.433594 100.566406 21.890625 C 100.550781 23.613281 99.671875 24.613281 98.183594 24.683594 C 96.492188 24.769531 95.617188 23.980469 95.355469 21.984375 M 139.023438 27.730469 C 139.023438 26.6875 139.023438 25.648438 139.023438 24.492188 C 138.386719 24.492188 137.859375 24.492188 137.328125 24.492188 C 136.679688 24.488281 136.285156 24.144531 136.273438 23.515625 C 136.242188 21.667969 136.261719 19.816406 136.261719 17.855469 C 137.195312 17.855469 138.042969 17.855469 138.90625 17.855469 C 138.90625 16.652344 138.90625 15.5625 138.90625 14.375 C 138 14.375 137.152344 14.375 136.234375 14.375 C 136.234375 13.242188 136.234375 12.203125 136.234375 11.109375 C 134.835938 11.109375 133.507812 11.109375 132.078125 11.109375 C 132.078125 12.214844 132.078125 13.277344 132.078125 14.425781 C 131.484375 14.425781 130.992188 14.425781 130.503906 14.425781 C 130.503906 15.613281 130.503906 16.703125 130.503906 17.832031 C 131.058594 17.859375 131.550781 17.882812 132.097656 17.910156 C 132.097656 19.832031 132.066406 21.65625 132.105469 23.484375 C 132.175781 27.082031 135.5625 29.234375 139.023438 27.730469 M 25.410156 19.890625 C 25.40625 17.042969 25.429688 14.195312 25.398438 11.347656 C 25.382812 9.9375 24.382812 8.96875 23.097656 9 C 21.863281 9.03125 20.980469 10.019531 20.972656 11.402344 C 20.964844 13.621094 20.96875 15.839844 20.96875 18.058594 C 20.96875 21.328125 20.957031 24.59375 20.976562 27.863281 C 20.984375 29.679688 22.636719 30.742188 24.191406 29.953125 C 25.144531 29.472656 25.402344 28.605469 25.40625 27.625 C 25.414062 25.105469 25.410156 22.589844 25.410156 19.890625 M 88.289062 11.625 C 88.289062 11.074219 88.289062 10.523438 88.289062 10 C 86.785156 10 85.460938 10 84.148438 10 C 84.148438 16.058594 84.148438 22.039062 84.148438 28.03125 C 85.542969 28.03125 86.871094 28.03125 88.289062 28.03125 C 88.289062 22.589844 88.289062 17.195312 88.289062 11.625 M 13.621094 22.589844 C 13.625 23.550781 13.589844 24.511719 13.636719 25.46875 C 13.703125 26.824219 14.628906 27.597656 16.035156 27.539062 C 17.199219 27.492188 17.921875 26.671875 17.921875 25.386719 C 17.925781 21.519531 17.914062 17.652344 17.933594 13.78125 C 17.9375 12.960938 17.578125 12.402344 16.921875 12.011719 C 15.449219 11.128906 13.652344 12.171875 13.632812 13.953125 C 13.601562 16.769531 13.621094 19.589844 13.621094 22.589844 M 128.363281 22.050781 C 128.363281 19.519531 128.363281 16.988281 128.363281 14.460938 C 126.914062 14.460938 125.589844 14.460938 124.273438 14.460938 C 124.273438 19.019531 124.273438 23.523438 124.273438 28.019531 C 125.65625 28.019531 126.980469 28.019531 128.363281 28.019531 C 128.363281 26.050781 128.363281 24.140625 128.363281 22.050781 M 9.738281 24.285156 C 10 23.734375 10.464844 23.191406 10.492188 22.625 C 10.582031 20.5625 10.566406 18.492188 10.511719 16.425781 C 10.476562 15.089844 9.425781 14.164062 8.171875 14.222656 C 6.980469 14.273438 6.105469 15.253906 6.097656 16.578125 C 6.085938 18.496094 6.195312 20.421875 6.0625 22.332031 C 5.933594 24.171875 8.042969 25.628906 9.738281 24.285156 M 128.6875 11.3125 C 128.699219 10.984375 128.75 10.652344 128.707031 10.332031 C 128.5625 9.160156 127.449219 8.382812 126.078125 8.460938 C 124.792969 8.539062 123.859375 9.457031 123.839844 10.671875 C 123.820312 11.859375 124.683594 12.8125 125.898438 12.953125 C 127.1875 13.101562 128.027344 12.644531 128.6875 11.3125 Z M 128.6875 11.3125 "/>
<path style=" stroke:none;fill-rule:nonzero;fill:rgb(32.156863%,41.176471%,46.27451%);fill-opacity:1;" d="M 36.4375 26.777344 C 33.085938 24.464844 31.835938 20.152344 33.296875 16.09375 C 34.570312 12.558594 38.195312 10.433594 42.015625 10.679688 C 46.398438 10.964844 48.980469 13.878906 49.273438 16.324219 C 47.84375 16.324219 46.425781 16.335938 45.011719 16.308594 C 44.847656 16.308594 44.660156 16.109375 44.527344 15.960938 C 42.441406 13.636719 38.664062 14.25 37.417969 17.125 C 36.277344 19.753906 37.214844 22.949219 39.464844 24.011719 C 41.585938 25.011719 44.984375 24.640625 45.820312 21.460938 C 44.117188 21.460938 42.4375 21.460938 40.699219 21.460938 C 40.699219 20.402344 40.699219 19.433594 40.699219 18.417969 C 43.671875 18.417969 46.613281 18.417969 49.550781 18.417969 C 50.898438 24.765625 45.925781 28.386719 41.0625 28.195312 C 39.429688 28.128906 37.878906 27.726562 36.4375 26.777344 Z M 36.4375 26.777344 "/>
<path style=" stroke:none;fill-rule:nonzero;fill:rgb(32.54902%,41.176471%,46.666667%);fill-opacity:1;" d="M 81.128906 25.914062 C 81.128906 26.660156 81.128906 27.3125 81.128906 28.023438 C 79.722656 28.023438 78.394531 28.023438 76.945312 28.023438 C 76.945312 27.5 76.945312 26.960938 76.945312 26.324219 C 73.667969 29.152344 69.910156 28.789062 67.890625 25.554688 C 66.917969 24 66.527344 22.261719 66.796875 20.476562 C 66.988281 19.234375 67.367188 17.953125 67.957031 16.851562 C 69.347656 14.269531 73.789062 12.789062 76.910156 16.148438 C 76.910156 15.539062 76.910156 15.019531 76.910156 14.453125 C 78.328125 14.453125 79.660156 14.453125 81.128906 14.453125 C 81.128906 18.242188 81.128906 22.035156 81.128906 25.914062 M 71.320312 19.566406 C 71.230469 19.851562 71.113281 20.128906 71.050781 20.421875 C 70.679688 22.222656 71.566406 24 73.058594 24.472656 C 74.515625 24.929688 76.011719 24.25 76.621094 22.851562 C 77.386719 21.101562 76.78125 18.972656 75.292969 18.191406 C 73.902344 17.457031 72.378906 17.941406 71.320312 19.566406 Z M 71.320312 19.566406 "/>
<path style=" stroke:none;fill-rule:nonzero;fill:rgb(32.156863%,41.176471%,46.27451%);fill-opacity:1;" d="M 107.746094 16.207031 C 107.746094 15.582031 107.746094 15.050781 107.746094 14.457031 C 109.144531 14.457031 110.476562 14.457031 111.898438 14.457031 C 111.925781 14.929688 111.957031 15.421875 111.996094 16.058594 C 112.980469 15.09375 114.019531 14.496094 115.3125 14.332031 C 118.394531 13.941406 120.890625 15.742188 121.167969 18.839844 C 121.371094 21.132812 121.285156 23.449219 121.320312 25.757812 C 121.332031 26.5 121.324219 27.242188 121.324219 28.03125 C 119.910156 28.03125 118.585938 28.03125 117.175781 28.03125 C 117.175781 25.949219 117.183594 23.917969 117.171875 21.886719 C 117.167969 21.289062 117.160156 20.683594 117.089844 20.09375 C 116.902344 18.554688 115.953125 17.75 114.421875 17.792969 C 113 17.832031 112.050781 18.714844 112 20.246094 C 111.925781 22.464844 111.960938 24.683594 111.949219 26.902344 C 111.945312 27.257812 111.949219 27.613281 111.949219 28.023438 C 110.542969 28.023438 109.214844 28.023438 107.746094 28.023438 C 107.746094 24.125 107.746094 20.210938 107.746094 16.207031 Z M 107.746094 16.207031 "/>
<path style=" stroke:none;fill-rule:nonzero;fill:rgb(31.764706%,40.784314%,46.27451%);fill-opacity:1;" d="M 58.25 28.265625 C 53.902344 28.167969 51.164062 25.371094 51.210938 21.160156 C 51.257812 17.027344 54.109375 14.21875 58.261719 14.21875 C 62.402344 14.21875 65.238281 16.992188 65.347656 21.152344 C 65.453125 25.203125 62.550781 28.148438 58.25 28.265625 M 55.539062 20.253906 C 55.558594 21.023438 55.460938 21.816406 55.621094 22.554688 C 55.867188 23.695312 56.640625 24.445312 57.824219 24.613281 C 58.953125 24.777344 59.882812 24.351562 60.515625 23.398438 C 61.125 22.484375 61.214844 21.445312 61.015625 20.386719 C 60.730469 18.832031 59.726562 17.882812 58.351562 17.835938 C 56.992188 17.789062 56.003906 18.59375 55.539062 20.253906 Z M 55.539062 20.253906 "/>
<path style=" stroke:none;fill-rule:nonzero;fill:rgb(31.764706%,40.784314%,46.27451%);fill-opacity:1;" d="M 95.359375 22.066406 C 95.617188 23.980469 96.492188 24.769531 98.183594 24.683594 C 99.671875 24.613281 100.550781 23.613281 100.566406 21.890625 C 100.589844 19.433594 100.570312 16.980469 100.570312 14.464844 C 101.960938 14.464844 103.285156 14.464844 104.679688 14.464844 C 104.679688 18.96875 104.679688 23.472656 104.679688 28.03125 C 103.335938 28.03125 102.007812 28.03125 100.617188 28.03125 C 100.589844 27.492188 100.566406 26.972656 100.53125 26.304688 C 99.3125 27.726562 97.839844 28.269531 96.164062 28.21875 C 93.453125 28.132812 91.386719 26.152344 91.269531 23.332031 C 91.148438 20.402344 91.242188 17.460938 91.242188 14.464844 C 92.582031 14.464844 93.910156 14.464844 95.355469 14.464844 C 95.355469 16.96875 95.355469 19.476562 95.359375 22.066406 Z M 95.359375 22.066406 "/>
<path style=" stroke:none;fill-rule:nonzero;fill:rgb(31.764706%,40.784314%,46.27451%);fill-opacity:1;" d="M 139.011719 27.8125 C 135.5625 29.234375 132.175781 27.082031 132.105469 23.484375 C 132.066406 21.65625 132.097656 19.832031 132.097656 17.910156 C 131.550781 17.882812 131.058594 17.859375 130.503906 17.832031 C 130.503906 16.703125 130.503906 15.613281 130.503906 14.425781 C 130.992188 14.425781 131.484375 14.425781 132.078125 14.425781 C 132.078125 13.277344 132.078125 12.214844 132.078125 11.109375 C 133.507812 11.109375 134.835938 11.109375 136.234375 11.109375 C 136.234375 12.203125 136.234375 13.242188 136.234375 14.375 C 137.152344 14.375 138 14.375 138.90625 14.375 C 138.90625 15.5625 138.90625 16.652344 138.90625 17.855469 C 138.042969 17.855469 137.195312 17.855469 136.261719 17.855469 C 136.261719 19.816406 136.242188 21.667969 136.273438 23.515625 C 136.285156 24.144531 136.679688 24.488281 137.328125 24.492188 C 137.859375 24.492188 138.386719 24.492188 139.023438 24.492188 C 139.023438 25.648438 139.023438 26.6875 139.011719 27.8125 Z M 139.011719 27.8125 "/>
<path style=" stroke:none;fill-rule:nonzero;fill:rgb(55.294118%,59.607843%,54.509804%);fill-opacity:1;" d="M 25.410156 19.980469 C 25.410156 22.589844 25.414062 25.105469 25.40625 27.625 C 25.402344 28.605469 25.144531 29.472656 24.191406 29.953125 C 22.636719 30.742188 20.984375 29.679688 20.976562 27.863281 C 20.957031 24.59375 20.96875 21.328125 20.96875 18.058594 C 20.96875 15.839844 20.964844 13.621094 20.972656 11.402344 C 20.980469 10.019531 21.863281 9.03125 23.097656 9 C 24.382812 8.96875 25.382812 9.9375 25.398438 11.347656 C 25.429688 14.195312 25.40625 17.042969 25.410156 19.980469 Z M 25.410156 19.980469 "/>
<path style=" stroke:none;fill-rule:nonzero;fill:rgb(32.156863%,41.176471%,46.27451%);fill-opacity:1;" d="M 88.289062 11.714844 C 88.289062 17.195312 88.289062 22.589844 88.289062 28.03125 C 86.871094 28.03125 85.542969 28.03125 84.148438 28.03125 C 84.148438 22.039062 84.148438 16.058594 84.148438 10 C 85.460938 10 86.785156 10 88.289062 10 C 88.289062 10.523438 88.289062 11.074219 88.289062 11.714844 Z M 88.289062 11.714844 "/>
<path style=" stroke:none;fill-rule:nonzero;fill:rgb(54.509804%,58.823529%,53.72549%);fill-opacity:1;" d="M 13.621094 22.5 C 13.621094 19.589844 13.601562 16.769531 13.632812 13.953125 C 13.652344 12.171875 15.449219 11.128906 16.921875 12.011719 C 17.578125 12.402344 17.9375 12.960938 17.933594 13.78125 C 17.914062 17.652344 17.925781 21.519531 17.921875 25.386719 C 17.921875 26.671875 17.199219 27.492188 16.035156 27.539062 C 14.628906 27.597656 13.703125 26.824219 13.636719 25.46875 C 13.589844 24.511719 13.625 23.550781 13.621094 22.5 Z M 13.621094 22.5 "/>
<path style=" stroke:none;fill-rule:nonzero;fill:rgb(31.372549%,40.392157%,45.882353%);fill-opacity:1;" d="M 128.363281 22.140625 C 128.363281 24.140625 128.363281 26.050781 128.363281 28.019531 C 126.980469 28.019531 125.65625 28.019531 124.273438 28.019531 C 124.273438 23.523438 124.273438 19.019531 124.273438 14.460938 C 125.589844 14.460938 126.914062 14.460938 128.363281 14.460938 C 128.363281 16.988281 128.363281 19.519531 128.363281 22.140625 Z M 128.363281 22.140625 "/>
<path style=" stroke:none;fill-rule:nonzero;fill:rgb(55.294118%,59.607843%,54.509804%);fill-opacity:1;" d="M 9.6875 24.328125 C 8.042969 25.628906 5.933594 24.171875 6.0625 22.332031 C 6.195312 20.421875 6.085938 18.496094 6.097656 16.578125 C 6.105469 15.253906 6.980469 14.273438 8.171875 14.222656 C 9.425781 14.164062 10.476562 15.089844 10.511719 16.425781 C 10.566406 18.492188 10.582031 20.5625 10.492188 22.625 C 10.464844 23.191406 10 23.734375 9.6875 24.328125 Z M 9.6875 24.328125 "/>
<path style=" stroke:none;fill-rule:nonzero;fill:rgb(32.156863%,41.176471%,46.666667%);fill-opacity:1;" d="M 128.667969 11.382812 C 128.027344 12.644531 127.1875 13.101562 125.898438 12.953125 C 124.683594 12.8125 123.820312 11.859375 123.839844 10.671875 C 123.859375 9.457031 124.792969 8.539062 126.078125 8.460938 C 127.449219 8.382812 128.5625 9.160156 128.707031 10.332031 C 128.75 10.652344 128.699219 10.984375 128.667969 11.382812 Z M 128.667969 11.382812 "/>
<path style=" stroke:none;fill-rule:nonzero;fill:rgb(94.509804%,95.294118%,93.72549%);fill-opacity:1;" d="M 71.347656 19.503906 C 72.378906 17.941406 73.902344 17.457031 75.292969 18.191406 C 76.78125 18.972656 77.386719 21.101562 76.621094 22.851562 C 76.011719 24.25 74.515625 24.929688 73.058594 24.472656 C 71.566406 24 70.679688 22.222656 71.050781 20.421875 C 71.113281 20.128906 71.230469 19.851562 71.347656 19.503906 Z M 71.347656 19.503906 "/>
<path style=" stroke:none;fill-rule:nonzero;fill:rgb(94.117647%,94.901961%,93.72549%);fill-opacity:1;" d="M 55.550781 20.183594 C 56.003906 18.59375 56.992188 17.789062 58.351562 17.835938 C 59.726562 17.882812 60.730469 18.832031 61.015625 20.386719 C 61.214844 21.445312 61.125 22.484375 60.515625 23.398438 C 59.882812 24.351562 58.953125 24.777344 57.824219 24.613281 C 56.640625 24.445312 55.867188 23.695312 55.621094 22.554688 C 55.460938 21.816406 55.558594 21.023438 55.550781 20.183594 Z M 55.550781 20.183594 "/>
</g>
</svg>
